<svg width="320" height="44" viewBox="0 0 320 44" fill="none" xmlns="http://www.w3.org/2000/svg">
<rect width="116" height="44" rx="4" fill="#FFCA2C"/>
<path d="M23.2506 14.98H16.7546V11.9H33.3866V14.98H26.8906V31.5H23.2506V14.98ZM45.0009 31.78C43.0036 31.78 41.2022 31.3507 39.5969 30.492C37.9916 29.6147 36.7316 28.4107 35.8169 26.88C34.9022 25.3307 34.4449 23.604 34.4449 21.7C34.4449 19.796 34.9022 18.0787 35.8169 16.548C36.7316 14.9987 37.9916 13.7947 39.5969 12.936C41.2022 12.0587 43.0036 11.62 45.0009 11.62C46.9982 11.62 48.7996 12.0587 50.4049 12.936C52.0102 13.7947 53.2702 14.9893 54.1849 16.52C55.0996 18.0507 55.5569 19.7773 55.5569 21.7C55.5569 23.6227 55.0996 25.3493 54.1849 26.88C53.2702 28.4107 52.0102 29.6147 50.4049 30.492C48.7996 31.3507 46.9982 31.78 45.0009 31.78ZM45.0009 28.588C46.3076 28.588 47.4836 28.2987 48.5289 27.72C49.5742 27.1227 50.3956 26.3013 50.9929 25.256C51.5902 24.192 51.8889 23.0067 51.8889 21.7C51.8889 20.3933 51.5902 19.2173 50.9929 18.172C50.3956 17.108 49.5742 16.2867 48.5289 15.708C47.4836 15.1107 46.3076 14.812 45.0009 14.812C43.6942 14.812 42.5182 15.1107 41.4729 15.708C40.4276 16.2867 39.6062 17.108 39.0089 18.172C38.4116 19.2173 38.1129 20.3933 38.1129 21.7C38.1129 23.0067 38.4116 24.192 39.0089 25.256C39.6062 26.3013 40.4276 27.1227 41.4729 27.72C42.5182 28.2987 43.6942 28.588 45.0009 28.588ZM67.8432 31.78C65.1365 31.78 63.0272 31.024 61.5152 29.512C60.0032 27.9813 59.2472 25.7973 59.2472 22.96V11.9H62.8872V22.82C62.8872 26.6653 64.5485 28.588 67.8712 28.588C71.1752 28.588 72.8272 26.6653 72.8272 22.82V11.9H76.4112V22.96C76.4112 25.7973 75.6552 27.9813 74.1432 29.512C72.6499 31.024 70.5499 31.78 67.8432 31.78ZM94.333 31.5L90.329 25.76C90.161 25.7787 89.909 25.788 89.573 25.788H85.149V31.5H81.509V11.9H89.573C91.2716 11.9 92.7463 12.18 93.997 12.74C95.2663 13.3 96.237 14.1027 96.909 15.148C97.581 16.1933 97.917 17.4347 97.917 18.872C97.917 20.3467 97.553 21.616 96.825 22.68C96.1156 23.744 95.089 24.5373 93.745 25.06L98.253 31.5H94.333ZM94.249 18.872C94.249 17.6213 93.8383 16.66 93.017 15.988C92.1956 15.316 90.9916 14.98 89.405 14.98H85.149V22.792H89.405C90.9916 22.792 92.1956 22.456 93.017 21.784C93.8383 21.0933 94.249 20.1227 94.249 18.872Z" fill="black"/>
<path d="M144.06 32.28C141.372 32.28 139.263 31.524 137.732 30.012C136.22 28.5 135.464 26.316 135.464 23.46V12.4H139.104V23.32C139.104 25.336 139.533 26.8013 140.392 27.716C141.269 28.6307 142.501 29.088 144.088 29.088C145.675 29.088 146.897 28.6307 147.756 27.716C148.615 26.8013 149.044 25.336 149.044 23.32V12.4H152.628V23.46C152.628 26.316 151.863 28.5 150.332 30.012C148.82 31.524 146.729 32.28 144.06 32.28ZM156.242 32V29.564L168.898 14.108L169.318 15.48H156.438V12.4H172.594V14.836L159.938 30.292L159.49 28.92H172.958V32H156.242ZM176.292 32V12.4H185.476C187.828 12.4 189.62 12.8667 190.852 13.8C192.084 14.7147 192.7 15.9467 192.7 17.496C192.7 18.5413 192.457 19.4373 191.972 20.184C191.487 20.912 190.833 21.4813 190.012 21.892C189.209 22.284 188.332 22.48 187.38 22.48L187.884 21.472C188.985 21.472 189.975 21.6773 190.852 22.088C191.729 22.48 192.42 23.0587 192.924 23.824C193.447 24.5893 193.708 25.5413 193.708 26.68C193.708 28.36 193.064 29.6667 191.776 30.6C190.488 31.5333 188.575 32 186.036 32H176.292ZM179.932 29.144H185.812C187.175 29.144 188.22 28.92 188.948 28.472C189.676 28.024 190.04 27.3053 190.04 26.316C190.04 25.3453 189.676 24.636 188.948 24.188C188.22 23.7213 187.175 23.488 185.812 23.488H179.652V20.66H185.084C186.353 20.66 187.324 20.436 187.996 19.988C188.687 19.54 189.032 18.868 189.032 17.972C189.032 17.0573 188.687 16.376 187.996 15.928C187.324 15.48 186.353 15.256 185.084 15.256H179.932V29.144ZM200.953 20.548H210.697V23.544H200.953V20.548ZM201.233 28.948H212.293V32H197.593V12.4H211.901V15.452H201.233V28.948ZM219.599 27.38L219.403 23.068L229.679 12.4H233.767L225.227 21.472L223.211 23.684L219.599 27.38ZM216.351 32V12.4H219.991V32H216.351ZM230.015 32L222.511 23.068L224.919 20.408L234.271 32H230.015ZM236.749 32V12.4H240.389V32H236.749ZM251.767 32.28C250.236 32.28 248.771 32.0653 247.371 31.636C245.971 31.188 244.86 30.6187 244.039 29.928L245.299 27.1C246.083 27.716 247.053 28.2293 248.211 28.64C249.368 29.0507 250.553 29.256 251.767 29.256C252.793 29.256 253.624 29.144 254.259 28.92C254.893 28.696 255.36 28.3973 255.659 28.024C255.957 27.632 256.107 27.1933 256.107 26.708C256.107 26.1107 255.892 25.6347 255.463 25.28C255.033 24.9067 254.473 24.6173 253.783 24.412C253.111 24.188 252.355 23.9827 251.515 23.796C250.693 23.6093 249.863 23.3947 249.023 23.152C248.201 22.8907 247.445 22.564 246.755 22.172C246.083 21.7613 245.532 21.22 245.103 20.548C244.673 19.876 244.459 19.0173 244.459 17.972C244.459 16.908 244.739 15.9373 245.299 15.06C245.877 14.164 246.745 13.4547 247.903 12.932C249.079 12.3907 250.563 12.12 252.355 12.12C253.531 12.12 254.697 12.2693 255.855 12.568C257.012 12.8667 258.02 13.296 258.879 13.856L257.731 16.684C256.853 16.1613 255.948 15.7787 255.015 15.536C254.081 15.2747 253.185 15.144 252.327 15.144C251.319 15.144 250.497 15.2653 249.863 15.508C249.247 15.7507 248.789 16.068 248.491 16.46C248.211 16.852 248.071 17.3 248.071 17.804C248.071 18.4013 248.276 18.8867 248.687 19.26C249.116 19.6147 249.667 19.8947 250.339 20.1C251.029 20.3053 251.795 20.5107 252.635 20.716C253.475 20.9027 254.305 21.1173 255.127 21.36C255.967 21.6027 256.723 21.92 257.395 22.312C258.085 22.704 258.636 23.236 259.047 23.908C259.476 24.58 259.691 25.4293 259.691 26.456C259.691 27.5013 259.401 28.472 258.823 29.368C258.263 30.2453 257.395 30.9547 256.219 31.496C255.043 32.0187 253.559 32.28 251.767 32.28ZM267.003 32V15.48H260.507V12.4H277.139V15.48H270.643V32H267.003ZM276.114 32L284.934 12.4H288.518L297.366 32H293.558L285.97 14.332H287.426L279.866 32H276.114ZM280.174 27.464L281.154 24.608H291.738L292.718 27.464H280.174ZM299.859 32V12.4H302.855L315.147 27.492H313.663V12.4H317.275V32H314.279L301.987 16.908H303.471V32H299.859Z" fill="white"/>
</svg>
